<svg width="410" height="80" viewBox="0 0 410 80" fill="none" xmlns="http://www.w3.org/2000/svg">
<path fill-rule="evenodd" clip-rule="evenodd" d="M52.6167 78.4158C47.5625 69.4389 42.0934 60.5752 36.2093 51.8246C30.3253 43.074 24.0641 34.8138 17.4257 27.0438L17.4257 78.4158H0V0H14.3706C16.86 2.48939 19.6134 5.54455 22.6308 9.16548C25.6483 12.7864 28.7034 16.6714 31.7963 20.8204C34.9646 24.8939 38.0952 29.1561 41.1881 33.6068C44.281 37.9821 47.1853 42.2065 49.901 46.2801V0H67.4399V78.4158H52.6167ZM72.5159 49.1089C72.5159 43.8284 73.308 39.2268 74.8922 35.3041C76.5518 31.306 78.7017 27.9868 81.3419 25.3465C83.9822 22.7063 86.9997 20.7072 90.3943 19.3494C93.8643 17.9915 97.4098 17.3126 101.031 17.3126C109.48 17.3126 116.156 19.9151 121.059 25.1202C125.962 30.2499 128.414 37.8312 128.414 47.8642C128.414 48.8449 128.376 49.9387 128.301 51.1457C128.225 52.2772 128.15 53.2956 128.075 54.2009H89.8285C90.2057 57.6709 91.8276 60.4243 94.6941 62.4611C97.5607 64.4979 101.408 65.5163 106.236 65.5163C109.329 65.5163 112.346 65.2522 115.288 64.7242C118.306 64.1207 120.757 63.4041 122.643 62.5743L124.906 76.2659C124.001 76.7185 122.794 77.1712 121.285 77.6238C119.777 78.0764 118.079 78.4536 116.193 78.7553C114.383 79.1325 112.422 79.4342 110.309 79.6605C108.197 79.8868 106.085 80 103.973 80C98.6168 80 93.9398 79.2079 89.9417 77.6238C86.019 76.0396 82.7375 73.8897 80.0972 71.174C77.5324 68.3828 75.6088 65.1014 74.3264 61.3296C73.1194 57.5578 72.5159 53.4842 72.5159 49.1089ZM112.12 42.6591C112.044 41.2258 111.78 39.8303 111.328 38.4724C110.951 37.1146 110.309 35.9076 109.404 34.8515C108.574 33.7954 107.481 32.9279 106.123 32.2489C104.84 31.57 103.218 31.2306 101.257 31.2306C99.3712 31.2306 97.7493 31.57 96.3914 32.2489C95.0336 32.8524 93.9021 33.6822 92.9968 34.7383C92.0916 35.7944 91.375 37.0391 90.8469 38.4724C90.3943 39.8303 90.0548 41.2258 89.8285 42.6591H112.12ZM158.511 31.9095C166.508 31.9095 170.506 37.3409 170.506 48.2037C170.506 53.4088 169.336 57.5955 166.998 60.7638C164.659 63.9321 161.189 65.5163 156.588 65.5163C155.079 65.5163 153.683 65.4786 152.401 65.4031C151.119 65.2522 150.062 65.1014 149.233 64.9505V34.2857C150.289 33.6068 151.647 33.041 153.306 32.5884C155.041 32.1358 156.776 31.9095 158.511 31.9095ZM185.555 61.5559C186.988 57.7086 187.705 53.4088 187.705 48.6563C187.705 43.9793 187.139 39.7548 186.008 35.983C184.876 32.1358 183.217 28.8543 181.029 26.1386C178.841 23.4229 176.126 21.3484 172.882 19.9151C169.638 18.4064 165.904 17.6521 161.68 17.6521C159.341 17.6521 157.153 17.8784 155.117 18.331C153.08 18.7836 151.119 19.4248 149.233 20.2546V0H132.373V76.4922C133.881 76.9448 135.616 77.3975 137.578 77.8501C139.539 78.2273 141.576 78.5667 143.688 78.8685C145.876 79.1702 148.063 79.3965 150.251 79.5474C152.514 79.7737 154.664 79.8869 156.701 79.8869C161.604 79.8869 165.98 79.1702 169.827 77.7369C173.674 76.2282 176.918 74.116 179.558 71.4003C182.198 68.6846 184.197 65.4031 185.555 61.5559ZM247.283 48.5431C247.283 53.2202 246.604 57.52 245.246 61.4427C243.888 65.29 241.927 68.6092 239.362 71.4003C236.797 74.116 233.704 76.2282 230.083 77.7369C226.538 79.2456 222.54 80 218.089 80C213.713 80 209.715 79.2456 206.094 77.7369C202.549 76.2282 199.494 74.116 196.929 71.4003C194.364 68.6092 192.365 65.29 190.932 61.4427C189.498 57.52 188.782 53.2202 188.782 48.5431C188.782 43.8661 189.498 39.604 190.932 35.7567C192.44 31.9095 194.477 28.628 197.042 25.9123C199.682 23.1966 202.775 21.0844 206.321 19.5757C209.942 18.0669 213.864 17.3126 218.089 17.3126C222.389 17.3126 226.311 18.0669 229.857 19.5757C233.478 21.0844 236.571 23.1966 239.135 25.9123C241.7 28.628 243.699 31.9095 245.133 35.7567C246.566 39.604 247.283 43.8661 247.283 48.5431ZM230.083 48.5431C230.083 43.3381 229.027 39.2645 226.915 36.3225C224.878 33.305 221.936 31.7963 218.089 31.7963C214.242 31.7963 211.262 33.305 209.15 36.3225C207.037 39.2645 205.981 43.3381 205.981 48.5431C205.981 53.7482 207.037 57.8972 209.15 60.9901C211.262 64.0075 214.242 65.5163 218.089 65.5163C221.936 65.5163 224.878 64.0075 226.915 60.9901C229.027 57.8972 230.083 53.7482 230.083 48.5431ZM263.059 77.9632C266.152 78.9439 271.193 79.6983 276.096 79.7737V65.5163C274.29 65.3824 273.858 65.1893 272.942 64.7789C272.825 64.7265 272.7 64.6707 272.564 64.611C271.357 64.083 270.414 63.4041 269.735 62.5743C269.131 61.7445 268.716 60.7261 268.49 59.5191C268.264 58.3121 268.151 56.9543 268.151 55.4455V0H251.291V58.8402C251.291 62.0085 251.592 64.8751 252.196 67.4399C252.875 69.9293 254.082 72.0792 255.817 73.8897C257.627 75.6247 260.041 76.9826 263.059 77.9632ZM328.847 76.3791C325.981 77.2089 322.284 77.9632 317.758 78.6422C313.232 79.3965 308.48 79.7737 303.501 79.7737C298.447 79.7737 294.222 79.0948 290.827 77.7369C287.508 76.3791 284.868 74.4932 282.907 72.0792C280.945 69.5898 279.55 66.6478 278.72 63.2532C277.89 59.8586 277.475 56.1245 277.475 52.0509V18.8967H294.335V50.0141C294.335 55.4455 295.052 59.3682 296.485 61.7822C297.918 64.1961 300.596 65.4031 304.519 65.4031C305.726 65.4031 307.009 65.3654 308.366 65.29C309.724 65.1391 310.931 64.9882 311.987 64.8373V18.8967H328.847V76.3791ZM359.271 65.4031C357.988 66.0066 355.801 66.3083 352.708 66.3083C349.766 66.3083 346.786 66.0066 343.769 65.4031C340.751 64.7242 337.809 63.819 334.943 62.6874L332.114 76.3791C333.472 76.9826 335.886 77.7369 339.356 78.6422C342.901 79.5474 347.314 80 352.595 80C360.666 80 366.89 78.4913 371.265 75.4738C375.716 72.4564 377.941 68.0057 377.941 62.1216C377.941 59.6323 377.639 57.4446 377.036 55.5587C376.508 53.6728 375.527 51.9755 374.094 50.4668C372.736 48.8826 370.85 47.4493 368.436 46.1669C366.022 44.8091 362.967 43.4512 359.271 42.0933C357.46 41.4144 355.952 40.8109 354.745 40.2829C353.613 39.6794 352.708 39.1513 352.029 38.6987C351.35 38.1707 350.897 37.6426 350.671 37.1146C350.445 36.5865 350.332 35.983 350.332 35.3041C350.332 32.3621 352.972 30.8911 358.252 30.8911C361.119 30.8911 363.684 31.1551 365.947 31.6832C368.285 32.2112 370.435 32.8147 372.397 33.4936L375.339 20.3677C373.377 19.6134 370.737 18.9345 367.418 18.331C364.099 17.6521 360.629 17.3126 357.008 17.3126C349.766 17.3126 344.07 18.9345 339.921 22.1782C335.772 25.422 333.698 29.835 333.698 35.4173C333.698 38.2838 334.113 40.7355 334.943 42.7723C335.772 44.809 336.942 46.5818 338.45 48.0905C339.959 49.5238 341.77 50.7685 343.882 51.8246C346.069 52.8807 348.483 53.8991 351.124 54.8798C354.518 56.1622 357.045 57.3315 358.705 58.3876C360.365 59.3682 361.194 60.5375 361.194 61.8953C361.194 63.6304 360.553 64.7996 359.271 65.4031ZM408.487 14.5969C408.487 15.8501 408.317 17.0636 407.999 18.2158C406.737 24.0003 403.011 33.4 396.677 38.3849C395.682 39.1676 394.436 39.7462 393.193 39.5083C390.692 39.0295 391.472 36.1273 392.422 32.5944C392.808 31.1598 393.222 29.6212 393.456 28.0986C386.639 27.3738 381.33 21.6054 381.33 14.5969C381.33 7.09769 387.409 1.01839 394.908 1.01839C402.407 1.01839 408.487 7.09769 408.487 14.5969Z" fill="white"/>
</svg>
