<svg width="119" height="36" viewBox="0 0 119 36" fill="none" xmlns="http://www.w3.org/2000/svg">
<path d="M18.9724 0.0610382C18.6805 0.0203558 18.3858 -4.09029e-05 18.0908 6.1581e-08C17.8189 4.84425e-05 17.5469 0.0170387 17.277 0.0508659V0.0135664C13.9759 0.15298 10.7762 1.19498 8.02613 3.02621C5.27597 4.85744 3.08069 7.40777 1.67905 10.3998C1.6587 10.4405 1.63836 10.4845 1.62141 10.5286C0.552913 12.8704 0 15.4144 0 17.9885C0 20.5626 0.552913 23.1066 1.62141 25.4484C1.63836 25.4925 1.6587 25.5332 1.67905 25.5772C3.08069 28.5692 5.27597 31.1196 8.02613 32.9508C10.7762 34.7821 13.9759 35.8241 17.277 35.9634V35.9295C17.4804 35.9567 17.6805 35.9736 17.884 35.9804H18.3248C18.5418 35.9746 18.7578 35.9553 18.9724 35.9227V35.96C23.6037 35.759 27.9785 33.7775 31.1846 30.4292C34.3906 27.0809 36.18 22.6242 36.18 17.9885C36.18 13.3528 34.3906 8.89612 31.1846 5.54782C27.9785 2.19954 23.6037 0.218174 18.9724 0.0169554V0.0610382ZM27.6801 10.3964C26.7409 6.97499 25.1913 4.14024 23.272 2.299C27.3746 3.65117 30.7838 6.55846 32.7664 10.3964H27.6801ZM18.9656 1.5191C22.0445 2.0786 24.6623 5.53727 26.0051 10.3998H18.9656V1.5191ZM18.9656 12.085H26.4255C27.1949 15.9862 27.1752 20.0019 26.3679 23.8954H18.9656V12.085ZM17.2702 23.8954H9.81033C9.39929 21.9066 9.19814 19.8802 9.21014 17.8495C9.20743 15.9141 9.39596 13.9833 9.77302 12.085H17.2872L17.2702 23.8954ZM17.2702 10.4099H10.1494C11.5159 5.50336 14.1608 2.02434 17.2702 1.50554V10.4099ZM12.9028 2.31257C10.9768 4.1538 9.42377 6.98856 8.49467 10.4099H3.41856C5.39747 6.57063 8.80239 3.65996 12.9028 2.3024V2.31257ZM1.61123 17.8936C1.60859 15.9125 1.9671 13.9476 2.66918 12.0952H8.09455C7.31805 15.9937 7.31805 20.007 8.09455 23.9055H2.76751C2.01152 21.9915 1.62497 19.9515 1.62819 17.8936H1.61123ZM3.54741 25.5908H8.50145C9.38647 28.8155 10.814 31.5214 12.5874 33.366C8.71108 31.9903 5.48749 29.2178 3.54741 25.5908ZM10.2579 25.5908H17.2872V34.2036C14.2354 33.695 11.6346 30.3414 10.2579 25.5908ZM18.9826 34.19V25.5806H25.9271C24.5605 30.2939 21.9835 33.6305 18.9656 34.1798L18.9826 34.19ZM23.6111 33.366C25.3845 31.5214 26.8155 28.8155 27.6971 25.5908H32.6511C30.7068 29.2186 27.4764 31.9883 23.5942 33.3559L23.6111 33.366ZM28.1006 23.9055C28.8785 20.0072 28.8785 15.9936 28.1006 12.0952H33.526C34.9627 15.9061 34.9339 20.1148 33.4446 23.9055H28.1006Z" fill="#F0B742"/>
<path d="M65.9177 16.1002V14.5983H65.9143C65.9143 14.5983 65.9628 14.1577 65.5952 14.0433C64.8791 13.8529 64.2603 13.4012 63.8608 12.7772C63.4687 12.1907 63.2433 11.5084 63.2088 10.8036V3.37039C63.1748 3.1928 63.0919 3.02839 62.9694 2.89519C62.8311 2.79495 62.665 2.74049 62.4942 2.73911H61.2247C61.0422 2.80258 60.8787 2.91115 60.7495 3.05475C60.656 3.19661 60.601 3.36033 60.59 3.52995V11.0395C60.59 11.0395 60.7495 12.9923 61.6305 14.2791C62.292 15.1463 63.1667 15.8275 64.1696 16.2563C64.1696 16.2563 64.9639 16.6968 65.4425 16.6517C65.8276 16.617 65.9177 16.1002 65.9177 16.1002Z" fill="#F0B742"/>
<path d="M67.267 16.1002V14.5983H67.2878C67.2878 14.5983 67.2358 14.1577 67.6035 14.0433C68.32 13.8539 68.9391 13.4019 69.3378 12.7772C69.7238 12.1886 69.9431 11.5067 69.9725 10.8036V3.37039C70.0065 3.1928 70.0894 3.02839 70.2119 2.89519C70.3502 2.79495 70.5163 2.74049 70.6871 2.73911H71.9566C72.1398 2.80293 72.3044 2.91149 72.4352 3.05475C72.5285 3.19661 72.5823 3.36068 72.5913 3.52995V11.0395C72.5913 11.0395 72.4318 12.9923 71.5507 14.2791C70.8901 15.147 70.0151 15.8286 69.0117 16.2563C69.0117 16.2563 68.2174 16.6968 67.7422 16.6517C67.3537 16.617 67.267 16.1002 67.267 16.1002Z" fill="#F0B742"/>
<path d="M79.2649 20.6059C79.147 20.7099 79.0648 20.8483 79.029 21.0013L74.4886 27.5708V32.7009C74.4813 32.7744 74.4917 32.8487 74.5188 32.9173C74.546 32.9864 74.5891 33.0474 74.6447 33.0963C74.8187 33.2011 75.0068 33.2805 75.2032 33.3322H76.3131C76.4561 33.3148 76.5923 33.2611 76.7085 33.1761C76.8056 33.0554 76.8861 32.9225 76.9479 32.7807V28.4137L80.7634 22.8986L81.8039 21.0811C81.7935 20.9364 81.7391 20.7984 81.6478 20.6856C81.5337 20.5941 81.395 20.5382 81.2489 20.5261H79.6638C79.5258 20.5049 79.3842 20.533 79.2649 20.6059Z" fill="#F0B742"/>
<path d="M55.6958 16.4158H56.3305L56.3201 16.4054C56.6401 16.4491 56.9657 16.4217 57.274 16.3256C57.3908 16.2462 57.4874 16.1404 57.5561 16.0169C57.6247 15.8934 57.6635 15.7557 57.6694 15.6146L57.5896 3.59932C57.615 3.46994 57.6067 3.3364 57.5654 3.21118C57.5241 3.08596 57.4512 2.97358 57.3537 2.88479C57.0253 2.74674 56.6676 2.69332 56.3132 2.7287C55.9413 2.70754 55.5682 2.73425 55.2032 2.80848C55.089 2.83414 54.9811 2.88236 54.8858 2.95C54.7905 3.01798 54.7097 3.10435 54.6482 3.2039L51.4155 7.6333C51.4155 7.6333 51.2282 8.07035 50.9403 8.02873C50.6524 7.9871 50.3055 7.47375 50.3055 7.47375L46.9722 3.04781C46.8905 2.96387 46.7911 2.89935 46.6814 2.85842C46.5716 2.81784 46.4541 2.80189 46.3375 2.81194C45.9871 2.81194 45.1581 2.7842 44.9084 2.81194C43.8817 2.90906 44.2736 3.60278 44.2736 3.60278L50.3055 11.5806C50.3055 11.5806 50.5761 11.9586 50.8605 11.976C51.1033 11.951 51.3288 11.839 51.4953 11.6604L54.2702 8.02526C54.2702 8.02526 54.6482 7.52231 54.8251 7.55006C55.002 7.57781 54.9847 8.3409 54.9847 8.3409V15.625C54.9748 15.8459 55.029 16.0651 55.1408 16.2563C55.2164 16.3211 55.3051 16.369 55.4009 16.3964C55.4967 16.4241 55.5972 16.4307 55.6958 16.4158Z" fill="#F0B742"/>
<path d="M75.8483 11.8581C75.7265 11.9642 75.6414 12.1064 75.6055 12.2639V15.7568C75.6055 15.7568 75.5778 16.1106 75.7686 16.2424C75.9725 16.3357 76.1999 16.3645 76.4207 16.3256H77.5653C77.7063 16.3516 77.8518 16.3218 77.9711 16.2424C78.0891 16.1279 78.0544 15.84 78.0544 15.84V12.3437C78.0431 12.1949 77.9862 12.053 77.8913 11.9378C77.7733 11.8456 77.6313 11.789 77.482 11.7748H76.3374C76.1697 11.7523 75.9991 11.7814 75.8483 11.8581Z" fill="#F0B742"/>
<path d="M85.0505 16.4852H86.32L86.3131 16.4956C86.6378 16.5289 86.9656 16.4907 87.2739 16.3846C87.3884 16.3065 87.4834 16.2039 87.5517 16.0835C87.6204 15.9632 87.6607 15.8289 87.6693 15.6909V3.52995C87.6721 3.39537 87.6454 3.26217 87.5909 3.13938C87.5361 3.01624 87.4553 2.90698 87.3537 2.81888C87.0262 2.67736 86.6679 2.62256 86.3131 2.65932C86.0457 2.64025 85.7772 2.66731 85.5188 2.73911C85.4043 2.76408 85.2961 2.81194 85.2007 2.87993C85.1053 2.94791 85.0245 3.03428 84.9638 3.13453V9.22539C84.9638 9.22539 85.0783 11.6222 84.884 11.6742C84.6898 11.7263 83.3752 9.7769 83.3752 9.7769L78.3769 2.97844C78.2952 2.8945 78.1959 2.82998 78.0861 2.78905C77.9763 2.74847 77.8588 2.73252 77.7422 2.74257C77.3919 2.74257 76.5629 2.71829 76.3131 2.74257C75.2864 2.83969 75.6784 3.53341 75.6784 3.53341L80.6766 10.488L85.0505 16.4852Z" fill="#F0B742"/>
<path d="M112.269 3.2039V4.61215C112.269 4.61215 112.248 5.00064 112.456 5.10816C112.696 5.22402 112.954 5.29685 113.219 5.32322C113.219 5.32322 116.06 6.19383 115.918 9.67284C115.775 13.1518 113.219 13.7034 113.219 13.7034C112.927 13.7748 112.653 13.9031 112.411 14.0814C112.299 14.2785 112.25 14.5046 112.269 14.7301V15.7706C112.269 15.7706 112.255 16.1591 112.484 16.3117C112.715 16.412 112.97 16.4446 113.219 16.4054C113.219 16.4054 118.495 15.5625 118.616 9.92258C118.745 3.84906 113.618 2.80848 113.618 2.80848C113.272 2.70268 112.909 2.66939 112.55 2.71136C112.237 2.80154 112.269 3.2039 112.269 3.2039Z" fill="#F0B742"/>
<path d="M110.999 3.2039V4.61215C110.999 4.61215 111.02 5.00064 110.808 5.10816C110.569 5.22436 110.31 5.2972 110.045 5.32322C110.045 5.32322 107.201 6.19383 107.347 9.67284C107.492 13.1518 110.045 13.7034 110.045 13.7034C110.337 13.7748 110.612 13.9031 110.853 14.0814C110.966 14.2785 111.016 14.5043 110.999 14.7301V15.7706C110.999 15.7706 111.013 16.1591 110.781 16.3117C110.549 16.412 110.294 16.4446 110.045 16.4054C110.045 16.4054 104.77 15.5625 104.652 9.92258C104.52 3.84906 109.65 2.80848 109.65 2.80848C109.995 2.70268 110.359 2.66939 110.718 2.71136C111.027 2.80154 110.999 3.2039 110.999 3.2039Z" fill="#F0B742"/>
<path d="M90.7633 3.26633V4.69193L90.7529 4.67805C90.7529 4.67805 90.6835 5.04919 90.9402 5.17406C91.1969 5.29893 94.1487 5.19488 96.0529 5.21569C96.5913 5.22297 97.1279 5.2809 97.6554 5.38912C97.6554 5.38912 100.552 6.26668 100.354 9.73528C100.33 10.5837 100.063 11.4075 99.585 12.1085C99.1067 12.8095 98.4369 13.3582 97.6554 13.6895C97.6554 13.6895 91.5646 13.7866 91.0651 13.8282C90.7633 13.8525 90.7633 14.796 90.7633 14.796V15.8365C90.7973 16.0454 90.9014 16.2361 91.0582 16.3776C91.3044 16.5407 97.6658 16.4713 97.6658 16.4713C97.6658 16.4713 102.942 15.6284 103.063 9.98848C103.191 3.9219 98.141 2.7946 98.141 2.7946C98.141 2.7946 96.0876 2.69748 94.773 2.69748H91.2802C90.9576 2.69748 90.7633 3.26633 90.7633 3.26633Z" fill="#F0B742"/>
<path d="M112.768 21.0048V22.3055L112.775 22.3228C112.775 22.3228 112.758 22.6801 112.949 22.7772C113.166 22.8837 113.401 22.9506 113.642 22.9749C113.642 22.9749 116.24 23.7519 116.108 26.9361C115.977 30.1203 113.642 30.6232 113.642 30.6232C113.375 30.6874 113.124 30.8057 112.903 30.9701C112.8 31.1497 112.753 31.3565 112.768 31.5632V32.5032C112.768 32.5032 112.758 32.857 112.969 32.9957C113.181 33.0876 113.414 33.1178 113.642 33.0824C113.642 33.0824 118.467 32.3124 118.578 27.1511C118.696 21.6048 114.003 20.644 114.003 20.644C113.686 20.5486 113.353 20.5192 113.025 20.5573C112.744 20.6406 112.768 21.0048 112.768 21.0048Z" fill="#F0B742"/>
<path d="M49.5529 21.1817V22.4824L49.5459 22.4755C49.5459 22.4755 49.5633 22.8327 49.3725 22.9298C49.0931 23.0603 48.8071 23.1761 48.5158 23.2767C48.5158 23.2767 46.4623 23.908 46.6011 27.0922C46.7398 30.2763 48.6822 30.703 48.6822 30.703C48.949 30.7685 49.2001 30.8865 49.4211 31.0498C49.5237 31.2309 49.5696 31.439 49.5529 31.6464V32.6003C49.5529 32.6003 49.5633 32.9541 49.3517 33.0928C49.1413 33.1848 48.9091 33.2149 48.6822 33.1796C48.6822 33.1796 44.3291 32.4095 44.2216 27.2482C44.1037 21.702 48.318 20.8209 48.318 20.8209C48.6346 20.7245 48.9674 20.694 49.2962 20.7307C49.5771 20.814 49.5529 21.1817 49.5529 21.1817Z" fill="#F0B742"/>
<path d="M111.603 21.095V22.3957L111.596 22.3853C111.596 22.3853 111.613 22.7425 111.422 22.8397C111.204 22.9444 110.969 23.011 110.729 23.0374C110.729 23.0374 108.131 23.8351 108.262 27.0159C108.394 30.1966 110.729 30.703 110.729 30.703C110.995 30.7685 111.246 30.8865 111.467 31.0498C111.571 31.2305 111.618 31.4387 111.603 31.6464V32.5934C111.603 32.5934 111.613 32.9472 111.402 33.0859C111.19 33.1778 110.956 33.208 110.729 33.1726C110.729 33.1726 105.904 32.4026 105.793 27.2413C105.675 21.695 110.368 20.7342 110.368 20.7342C110.684 20.6392 111.015 20.6083 111.343 20.644C111.627 20.7273 111.603 21.095 111.603 21.095Z" fill="#F0B742"/>
<path d="M50.8016 21.0845V22.3853H50.8154C50.8154 22.3853 50.7981 22.7425 50.9889 22.8397C51.2185 22.9427 51.4695 22.9891 51.7207 22.9749C52.1112 23.1414 52.4757 23.3634 52.8029 23.634C53.0952 23.899 53.3414 24.2108 53.5313 24.5566C53.6332 24.7679 53.7901 24.9475 53.9857 25.0769C54.2975 25.1952 54.627 25.2597 54.9604 25.2677C55.2781 25.3086 55.6008 25.2528 55.8865 25.1081C56.1467 24.9069 56.0704 24.3208 56.0704 24.3208C55.7838 23.541 55.3222 22.8372 54.7211 22.2639C53.9853 21.5129 53.0561 20.9798 52.0364 20.7238C51.7197 20.6284 51.387 20.5979 51.0582 20.6336C50.7773 20.7169 50.8016 21.0845 50.8016 21.0845Z" fill="#F0B742"/>
<path d="M50.6593 32.7876V31.4834L50.6524 31.4973C50.6524 31.4973 50.6316 31.1435 50.8224 31.0429C51.052 30.9399 51.303 30.8934 51.5542 30.9076C51.9491 30.7425 52.3182 30.5219 52.6503 30.2521C52.9422 29.9853 53.1883 29.6725 53.3787 29.3259C53.4817 29.1154 53.6399 28.9368 53.8366 28.8091C54.1471 28.6905 54.4754 28.6246 54.8078 28.6149C55.1259 28.5739 55.4489 28.6308 55.7339 28.7779C55.9941 28.9791 55.9177 29.5653 55.9177 29.5653C55.6317 30.3384 55.1725 31.0363 54.5754 31.6048C53.8406 32.3578 52.9112 32.892 51.8907 33.1483C51.5752 33.2437 51.2434 33.2732 50.916 33.2351C50.6316 33.1345 50.6593 32.7876 50.6593 32.7876Z" fill="#F0B742"/>
<path d="M44.4193 11.9101C44.2997 12.0131 44.2159 12.1519 44.18 12.3055L44.1869 15.8608C44.1869 15.8608 44.1592 16.2042 44.3465 16.336C44.5454 16.4252 44.7664 16.4529 44.9812 16.4158H46.2508C46.2508 16.4158 46.5317 16.4505 46.6462 16.336C46.7606 16.2216 46.726 15.9406 46.726 15.9406V12.3818C46.7148 12.2372 46.6604 12.0995 46.5699 11.9864C46.4549 11.8966 46.3163 11.8425 46.171 11.8303H44.8945C44.7317 11.8057 44.5652 11.8334 44.4193 11.9101Z" fill="#F0B742"/>
<path d="M97.0658 20.7342C96.9603 20.6138 96.8195 20.5303 96.6634 20.4949L94.7938 20.5018C94.7938 20.5018 94.4435 20.4706 94.3082 20.6614C94.2191 20.8615 94.1913 21.0835 94.2285 21.2996V22.3402C94.2132 22.4172 94.217 22.4966 94.2399 22.5715C94.2628 22.6468 94.3037 22.7148 94.3596 22.7703C94.4151 22.8254 94.4837 22.8664 94.5587 22.8886C94.6339 22.9111 94.7134 22.9146 94.7904 22.8986H96.5836C96.731 22.8879 96.8715 22.832 96.986 22.7391C97.0783 22.6236 97.1351 22.4838 97.149 22.3367V21.2129C97.1716 21.0485 97.1428 20.8813 97.0658 20.7342Z" fill="#F0B742"/>
<path d="M98.5399 20.6059C98.4203 20.7089 98.3363 20.8476 98.3006 21.0013V32.5413C98.3006 32.5413 98.2728 32.9645 98.4601 33.0963C98.6308 33.1844 98.8264 33.2125 99.0151 33.1761H100.285C100.423 33.2004 100.565 33.1719 100.684 33.0963C100.795 32.968 100.76 32.6211 100.76 32.6211V23.3704C100.756 23.3426 100.774 23.0166 100.84 22.9749C101.069 22.8969 101.313 22.8709 101.554 22.8986H103.857C104.125 22.9392 104.398 22.9118 104.652 22.8188C104.86 22.6905 104.808 22.3436 104.808 22.3436L104.887 21.0811C104.877 20.9357 104.821 20.7973 104.728 20.6856C104.615 20.5937 104.477 20.5379 104.333 20.5261H98.9353C98.7983 20.5049 98.6582 20.5334 98.5399 20.6059Z" fill="#F0B742"/>
<path d="M83.5417 26.8494C83.422 26.9524 83.3381 27.0911 83.3024 27.2448L83.292 32.5344C83.2934 32.7057 83.3492 32.8722 83.4515 33.0096C83.6433 33.123 83.8636 33.1785 84.0863 33.1692H85.1268C85.1268 33.1692 85.4911 33.1449 85.6055 33.0096C85.8032 32.7772 85.7616 32.6142 85.7616 32.6142V29.5306C85.7581 29.4994 85.7755 29.1733 85.8414 29.1352C86.0707 29.0564 86.3148 29.0294 86.5559 29.0554C86.5559 29.0554 88.318 29.1109 90.1286 28.9791C90.9437 28.9062 91.5646 28.3305 92.1889 27.9385C93.5833 27.0748 93.4168 24.841 93.5382 24.5393C93.7082 24.1334 93.2156 22.0835 91.5576 21.14C90.1216 20.3249 87.6555 20.5712 87.6555 20.5712L84.2493 20.5885C83.9558 20.5473 83.6565 20.5747 83.3752 20.6683C83.1636 20.7932 83.2156 21.14 83.2156 21.14V22.3263C83.226 22.4716 83.2819 22.61 83.3752 22.7217C83.4886 22.8123 83.626 22.8674 83.7706 22.8813H89.3204C89.3204 22.8813 91.1657 23.0894 91.0963 24.8237C91.0165 26.8528 89.0637 26.7696 89.0637 26.7696H83.9371C83.8001 26.7484 83.66 26.7769 83.5417 26.8494Z" fill="#F0B742"/>
<path d="M58.3111 26.4435C58.1889 26.5493 58.1037 26.6915 58.0683 26.8494V32.3957C58.0698 32.566 58.1257 32.7311 58.2278 32.8674C58.4194 32.9812 58.64 33.0367 58.8626 33.0269H59.9032C59.9032 33.0269 60.2674 33.0027 60.3784 32.8674C60.4327 32.8174 60.4752 32.756 60.5028 32.6877C60.5304 32.6194 60.5424 32.5455 60.5379 32.472V29.1525C60.531 29.1213 60.5483 28.7952 60.6177 28.7571C60.8473 28.679 61.0913 28.653 61.3322 28.6808H63.5938L65.8553 32.3124C65.8553 32.3124 66.2403 33.079 66.8959 33.0235C67.2601 32.9923 68.3041 33.0824 68.6302 32.8639C68.9562 32.6454 68.6302 32.0765 68.6302 32.0765C68.6302 32.0765 66.0391 28.327 66.2681 28.1882C66.5941 27.9905 66.8959 27.7581 67.2011 27.5674C68.592 26.7037 68.4255 24.7058 68.5504 24.4075C68.7169 23.9982 68.2243 21.9517 66.5664 21.0082C65.1304 20.1896 62.6642 20.4359 62.6642 20.4359H59.1782C58.8846 20.3946 58.5855 20.422 58.3041 20.5157C58.096 20.644 58.1481 20.9909 58.1481 20.9909V22.1772C58.1958 22.3482 58.2758 22.5081 58.3839 22.6489C58.498 22.7405 58.6369 22.7963 58.7828 22.8084L64.4124 22.7911C64.4124 22.7911 66.1917 22.9021 66.1085 24.6537C66.0253 26.4054 64.0759 26.3638 64.0759 26.3638H58.71C58.5717 26.3429 58.4306 26.371 58.3111 26.4435Z" fill="#F0B742"/>
<path d="M69.5667 21.2406L71.7172 24.3208H71.7103C71.7784 24.4394 71.8696 24.5427 71.9787 24.6249C72.0878 24.7072 72.2124 24.7665 72.345 24.7994C72.8186 24.8719 73.3005 24.8719 73.7741 24.7994C73.7741 24.7994 74.3256 24.7439 74.4089 24.404C74.4921 24.0641 74.0898 23.5334 74.0898 23.5334L72.1855 20.8452C72.1184 20.7585 72.0349 20.686 71.9396 20.6319C71.8444 20.5778 71.7393 20.5427 71.6305 20.5296C71.1576 20.4595 70.6792 20.4328 70.2014 20.4498C70.2014 20.4498 69.7401 20.4845 69.5667 20.6891C69.3933 20.8938 69.5667 21.2406 69.5667 21.2406Z" fill="#F0B742"/>
</svg>
